<svg width="1200" height="300" viewBox="0 0 1200 300" fill="none" xmlns="http://www.w3.org/2000/svg">
<rect width="1200" height="300" rx="10" fill="#0F1115"/>
<path d="M522.192 182.96C516.624 182.96 512.24 181.552 509.04 178.736C505.84 175.856 504.24 171.984 504.24 167.12C504.24 162.192 505.84 158.32 509.04 155.504C512.24 152.688 516.56 151.28 522 151.28H538.32V146C538.32 142.736 537.328 140.24 535.344 138.512C533.424 136.72 530.672 135.824 527.088 135.824C523.952 135.824 521.328 136.496 519.216 137.84C517.104 139.12 515.888 140.88 515.568 143.12H506.928C507.504 138.576 509.648 134.96 513.36 132.272C517.072 129.584 521.712 128.24 527.28 128.24C533.36 128.24 538.16 129.808 541.68 132.944C545.2 136.08 546.96 140.336 546.96 145.712V182H538.512V171.92H537.072L538.512 170.48C538.512 174.32 537.008 177.36 534 179.6C531.056 181.84 527.12 182.96 522.192 182.96ZM524.304 176.144C528.4 176.144 531.76 175.12 534.384 173.072C537.008 171.024 538.32 168.4 538.32 165.2V157.712H522.192C519.312 157.712 517.04 158.512 515.376 160.112C513.712 161.712 512.88 163.888 512.88 166.64C512.88 169.584 513.872 171.92 515.856 173.648C517.904 175.312 520.72 176.144 524.304 176.144ZM582.731 182.768C579.147 182.768 576.011 182.224 573.323 181.136C570.699 179.984 568.587 178.384 566.987 176.336C565.451 174.288 564.523 171.856 564.203 169.04H572.843C573.227 170.896 574.251 172.368 575.915 173.456C577.643 174.544 579.915 175.088 582.731 175.088H586.763C590.155 175.088 592.683 174.416 594.347 173.072C596.011 171.664 596.843 169.808 596.843 167.504C596.843 165.264 596.075 163.504 594.539 162.224C593.067 160.88 590.859 159.984 587.915 159.536L580.811 158.384C575.627 157.488 571.755 155.888 569.195 153.584C566.699 151.216 565.451 147.792 565.451 143.312C565.451 138.576 566.955 134.928 569.963 132.368C572.971 129.744 577.483 128.432 583.499 128.432H587.147C592.203 128.432 596.267 129.616 599.339 131.984C602.411 134.352 604.267 137.552 604.906 141.584H596.267C595.883 139.92 594.923 138.608 593.387 137.648C591.851 136.624 589.771 136.112 587.147 136.112H583.499C580.235 136.112 577.835 136.72 576.299 137.936C574.827 139.152 574.091 140.976 574.091 143.408C574.091 145.584 574.731 147.184 576.011 148.208C577.291 149.232 579.307 149.968 582.059 150.416L589.163 151.568C594.859 152.464 598.987 154.128 601.547 156.56C604.171 158.992 605.483 162.512 605.483 167.12C605.483 171.984 603.915 175.824 600.779 178.64C597.707 181.392 593.035 182.768 586.763 182.768H582.731ZM622.245 182V111.92H630.885V150.992H641.061L656.421 129.2H666.309L648.549 154.352L666.597 182H656.517L641.157 158.48H630.885V182H622.245ZM687.776 199.28L695.552 178.736L675.968 129.2H685.568L697.856 161.84C698.304 162.928 698.72 164.24 699.104 165.776C699.488 167.248 699.808 168.496 700.064 169.52C700.32 168.496 700.64 167.248 701.024 165.776C701.408 164.24 701.792 162.928 702.176 161.84L713.696 129.2H723.008L696.992 199.28H687.776Z" fill="#E6E6E6"/>
<g filter="url(#filter0_f_19_2)">
<path d="M446.4 200.44V187.864C440.384 187.352 435.648 185.432 432.192 182.104C428.8 178.712 427.04 174.264 426.912 168.76H435.552C435.552 171.896 436.48 174.456 438.336 176.44C440.256 178.424 442.944 179.64 446.4 180.088V154.936L443.808 154.168C439.008 152.696 435.296 150.232 432.672 146.776C430.112 143.32 428.832 139.256 428.832 134.584C428.832 129.464 430.4 125.24 433.536 121.912C436.736 118.584 441.024 116.664 446.4 116.152V103.48H452.16V116.056C457.472 116.568 461.728 118.488 464.928 121.816C468.128 125.144 469.76 129.432 469.824 134.68H461.184C461.184 131.672 460.384 129.24 458.784 127.384C457.248 125.464 455.04 124.28 452.16 123.832V147.64L456 148.888C460.672 150.36 464.288 152.856 466.848 156.376C469.408 159.896 470.688 164.024 470.688 168.76C470.688 174.008 468.992 178.36 465.6 181.816C462.272 185.272 457.792 187.288 452.16 187.864V200.44H446.4ZM452.16 180.088C455.296 179.576 457.728 178.36 459.456 176.44C461.184 174.52 462.048 172.024 462.048 168.952C462.048 166.136 461.28 163.672 459.744 161.56C458.272 159.448 456.128 157.976 453.312 157.144L452.16 156.76V180.088ZM446.4 149.656V123.832C443.584 124.28 441.376 125.368 439.776 127.096C438.24 128.824 437.472 131.064 437.472 133.816C437.472 137.144 438.496 139.96 440.544 142.264C442.592 144.504 445.536 145.912 449.376 146.488L446.4 149.656Z" fill="#EAF7AD"/>
</g>
<path d="M446.4 200.44V187.864C440.384 187.352 435.648 185.432 432.192 182.104C428.8 178.712 427.04 174.264 426.912 168.76H435.552C435.552 171.896 436.48 174.456 438.336 176.44C440.256 178.424 442.944 179.64 446.4 180.088V154.936L443.808 154.168C439.008 152.696 435.296 150.232 432.672 146.776C430.112 143.32 428.832 139.256 428.832 134.584C428.832 129.464 430.4 125.24 433.536 121.912C436.736 118.584 441.024 116.664 446.4 116.152V103.48H452.16V116.056C457.472 116.568 461.728 118.488 464.928 121.816C468.128 125.144 469.76 129.432 469.824 134.68H461.184C461.184 131.672 460.384 129.24 458.784 127.384C457.248 125.464 455.04 124.28 452.16 123.832V147.64L456 148.888C460.672 150.36 464.288 152.856 466.848 156.376C469.408 159.896 470.688 164.024 470.688 168.76C470.688 174.008 468.992 178.36 465.6 181.816C462.272 185.272 457.792 187.288 452.16 187.864V200.44H446.4ZM452.16 180.088C455.296 179.576 457.728 178.36 459.456 176.44C461.184 174.52 462.048 172.024 462.048 168.952C462.048 166.136 461.28 163.672 459.744 161.56C458.272 159.448 456.128 157.976 453.312 157.144L452.16 156.76V180.088ZM446.4 149.656V123.832C443.584 124.28 441.376 125.368 439.776 127.096C438.24 128.824 437.472 131.064 437.472 133.816C437.472 137.144 438.496 139.96 440.544 142.264C442.592 144.504 445.536 145.912 449.376 146.488L446.4 149.656Z" fill="#EAF7AD"/>
<g filter="url(#filter1_f_19_2)">
<line x1="736" y1="180" x2="779" y2="180" stroke="#EAF7AD" stroke-width="4"/>
</g>
<line x1="736" y1="180" x2="779" y2="180" stroke="#EAF7AD" stroke-width="4"/>
<defs>
<filter id="filter0_f_19_2" x="420.912" y="97.48" width="55.7759" height="108.96" filterUnits="userSpaceOnUse" color-interpolation-filters="sRGB">
<feFlood flood-opacity="0" result="BackgroundImageFix"/>
<feBlend mode="normal" in="SourceGraphic" in2="BackgroundImageFix" result="shape"/>
<feGaussianBlur stdDeviation="3" result="effect1_foregroundBlur_19_2"/>
</filter>
<filter id="filter1_f_19_2" x="730" y="172" width="55" height="16" filterUnits="userSpaceOnUse" color-interpolation-filters="sRGB">
<feFlood flood-opacity="0" result="BackgroundImageFix"/>
<feBlend mode="normal" in="SourceGraphic" in2="BackgroundImageFix" result="shape"/>
<feGaussianBlur stdDeviation="3" result="effect1_foregroundBlur_19_2"/>
</filter>
</defs>
</svg>
